<svg xmlns="http://www.w3.org/2000/svg" viewBox="0 0 24 24" width="24" height="24"><path d="M6.5 8.25L16.75 3.25" fill="none" stroke="#000" stroke-width="1.75" stroke-linecap="round" stroke-linejoin="round"/><path d="M6.75 8.25H17.25A4 4 0 0 1 21.25 12.25V16.75A4 4 0 0 1 17.25 20.75H6.75A4 4 0 0 1 2.75 16.75V12.25A4 4 0 0 1 6.75 8.25Z" fill="none" stroke="#000" stroke-width="1.75" stroke-linecap="round" stroke-linejoin="round"/><path d="M11.5 14.5A2.75 2.75 0 1 0 6 14.5A2.75 2.75 0 1 0 11.5 14.5Z" fill="none" stroke="#000" stroke-width="1.75" stroke-linecap="round" stroke-linejoin="round"/><path d="M14.75 12.25H17.5A.75 .75 0 0 1 17.5 13.75H14.75A.75 .75 0 0 1 14.75 12.25Z M14.75 15.25H17.5A.75 .75 0 0 1 17.5 16.75H14.75A.75 .75 0 0 1 14.75 15.25Z" fill="#000"/></svg>
